<?xml version="1.0" encoding="utf-8"?>
<!-- Generator: Adobe Illustrator 18.0.0, SVG Export Plug-In . SVG Version: 6.00 Build 0)  -->
<!DOCTYPE svg PUBLIC "-//W3C//DTD SVG 1.1//EN" "http://www.w3.org/Graphics/SVG/1.1/DTD/svg11.dtd">
<svg version="1.1" id="Layer_1" xmlns="http://www.w3.org/2000/svg" xmlns:xlink="http://www.w3.org/1999/xlink" x="0px" y="0px"
	 width="531.7px" height="792.8px" viewBox="0 0 531.7 792.8" style="enable-background:new 0 0 531.7 792.8;" xml:space="preserve"
	>
<g>
	<path style="fill:#A0C155;" d="M82.8,484.9c-12.3,9.2-14.6,26.8-5.4,39.1c5.4,6.9,13.8,10.7,22.2,10.7c6.1,0,11.5-1.5,16.9-6.1
		c15.4-11.5,29.8-27.1,42-45.4c13.9,17.8,35.6,29.3,59.9,29.3c41.9,0,75.9-34,75.9-75.9s-34-75.9-75.9-75.9
		c-8.1,0-15.9,1.3-23.2,3.6c0-19.4-2.7-39.2-9-58.8c-10.7-33.7,1.5-71.3,30.7-95.8c26.8-22.2,59.8-26.8,88.9-11.5
		c22.2,11.5,36,26.8,41.4,46.8c11.5,45.2-20.7,98.1-21.5,98.9c-8.4,13-4.6,29.9,8.4,38.3s29.9,4.6,38.3-8.4
		c1.5-3.1,46-74.4,27.6-142.6c-9.2-35.3-32.2-62.9-69-82c-49.1-26.1-106.6-19.2-150.3,17.6c-46.8,39.1-65.2,100.4-47.5,155.6
		C153.3,385.3,123.4,454.3,82.8,484.9z"/>
	<path style="fill:#A0C155;" d="M507.5,159.1c-26.1-60.6-92-130.3-168.7-149.5c-38.3-9.2-110.4-20.7-171.7,10
		C55.9,74-1.6,178.3,0,320.9c0,15.3,12.3,27.6,27.6,27.6s27.6-12.3,27.6-27.6C54.4,199.8,99.7,114.7,191.7,69.4
		c45.2-22.2,102.7-13,133.4-5.4c49.8,12.3,108.1,63.6,131.1,117.3c18.4,42.2,19.9,91.2,19.2,133.4c-1.5,72.1-76.7,128.8-77.4,129.6
		l-1.5,0.8c-29.1,24.5-78.2,73.6-78.2,128c0,7.7,0.8,16.1,1.5,25.3c2.3,34.5,5.4,77.4-23,101.2c-39.1,33-78.2,56.7-152.6,11.5
		c-26.1-21.5-33-59.8-33-60.6c-2.3-14.6-16.1-25.3-31.4-23c-14.6,2.3-25.3,16.1-23,31.4c0.8,2.3,9.2,60.6,54.4,96.6l3.1,2.3
		c39.9,24.5,74.4,34.5,104.3,34.5c47.5,0,83.6-23.8,115-49.8c49.8-42.2,45.2-105,42.2-147.2c0-7.7-0.8-15.3-0.8-21.5
		c0-22.2,21.5-55.2,57.5-85.1c10-7.7,96.6-76.7,98.9-172.5C532.8,268,530.5,212,507.5,159.1z"/>
</g>
</svg>
