<?xml version="1.0" encoding="UTF-8" standalone="no"?>
<!-- Created with Inkscape (http://www.inkscape.org/) -->

<svg
   xmlns:dc="http://purl.org/dc/elements/1.1/"
   xmlns:cc="http://creativecommons.org/ns#"
   xmlns:rdf="http://www.w3.org/1999/02/22-rdf-syntax-ns#"
   xmlns:svg="http://www.w3.org/2000/svg"
   xmlns="http://www.w3.org/2000/svg"
   xmlns:sodipodi="http://sodipodi.sourceforge.net/DTD/sodipodi-0.dtd"
   xmlns:inkscape="http://www.inkscape.org/namespaces/inkscape"
   width="320"
   height="240"
   id="svg2"
   version="1.1"
   inkscape:version="0.48.4 r9939"
   sodipodi:docname="Light_Base.svg"
   inkscape:export-filename="C:\Users\Ben\Desktop\Work Synchronize\Veenema Design Works\James and Karen\Developments\Blue Falcon\Firmware\Nextion Screen\Pages\New Design 4\Light_ON.png"
   inkscape:export-xdpi="90"
   inkscape:export-ydpi="90">
  <defs
     id="defs4" />
  <sodipodi:namedview
     id="base"
     pagecolor="#ffffff"
     bordercolor="#666666"
     borderopacity="1.0"
     inkscape:pageopacity="1"
     inkscape:pageshadow="2"
     inkscape:zoom="1.979899"
     inkscape:cx="-41.955511"
     inkscape:cy="161.0492"
     inkscape:document-units="px"
     inkscape:current-layer="layer1"
     showgrid="false"
     inkscape:window-width="1920"
     inkscape:window-height="1058"
     inkscape:window-x="-8"
     inkscape:window-y="-8"
     inkscape:window-maximized="1" />
  <metadata
     id="metadata7">
    <rdf:RDF>
      <cc:Work
         rdf:about="">
        <dc:format>image/svg+xml</dc:format>
        <dc:type
           rdf:resource="http://purl.org/dc/dcmitype/StillImage" />
        <dc:title></dc:title>
      </cc:Work>
    </rdf:RDF>
  </metadata>
  <g
     inkscape:label="Layer 1"
     inkscape:groupmode="layer"
     id="layer1"
     transform="translate(0,-812.36218)">
    <rect
       style="fill:#000000;fill-opacity:1;stroke:#000000;stroke-width:1.5;stroke-linecap:round;stroke-linejoin:round;stroke-miterlimit:4;stroke-opacity:1;stroke-dasharray:none;stroke-dashoffset:0"
       id="rect4383"
       width="320"
       height="240"
       x="0.75"
       y="813.11218" />
    <rect
       style="fill:#ffffff;fill-opacity:1;stroke:none;opacity:0.5"
       id="rect2985"
       width="142.4315"
       height="78"
       x="0"
       y="812.36218"
       ry="10.505588" />
    <rect
       ry="10.505588"
       y="893.36218"
       x="0"
       height="78"
       width="142.4315"
       id="rect2995"
       style="fill:#ffffff;fill-opacity:1;stroke:none;opacity:1" />
    <rect
       style="fill:#ffffff;fill-opacity:1;stroke:none;opacity:0.5"
       id="rect2997"
       width="142.4315"
       height="78"
       x="0"
       y="974.36218"
       ry="10.505588" />
    <rect
       style="fill:#ffffff;fill-opacity:1;stroke:none"
       id="rect2999"
       width="250"
       height="240"
       x="70"
       y="812.36218" />
    <g
       id="g4518"
       transform="translate(176.27162,-101.52033)">
      <rect
         ry="4.1301122"
         y="820.0144"
         x="80.75"
         height="48.5"
         width="228.5"
         id="rect3001"
         style="fill:#2a7fff;fill-opacity:1;stroke:#000000;stroke-width:1.49999976;stroke-miterlimit:4;stroke-dasharray:none" />
      <text
         sodipodi:linespacing="89.999998%"
         id="text3787"
         y="855.53003"
         x="86.368042"
         style="font-size:48px;font-style:normal;font-variant:normal;font-weight:normal;font-stretch:normal;text-align:start;line-height:89.99999762%;letter-spacing:0.40000001px;word-spacing:0px;text-anchor:start;fill:#000000;fill-opacity:1;stroke:none;font-family:Allura;-inkscape-font-specification:Allura"
         xml:space="preserve"><tspan
           style="font-size:32px;font-family:Arial;-inkscape-font-specification:Arial"
           y="855.53003"
           x="86.368042"
           id="tspan3789"
           sodipodi:role="line">Temp</tspan></text>
    </g>
    <g
       id="g4523"
       transform="translate(-121.21831,-171.72593)">
      <rect
         style="fill:#37c871;fill-opacity:1;stroke:#000000;stroke-width:1.49999976;stroke-miterlimit:4;stroke-dasharray:none"
         id="rect3781"
         width="228.5"
         height="48.5"
         x="80.75"
         y="879.7818"
         ry="4.1301122" />
      <text
         xml:space="preserve"
         style="font-size:48px;font-style:normal;font-variant:normal;font-weight:normal;font-stretch:normal;text-align:start;line-height:89.99999762%;letter-spacing:0.40000001px;word-spacing:0px;text-anchor:start;fill:#000000;fill-opacity:1;stroke:none;font-family:Allura;-inkscape-font-specification:Allura"
         x="86.368042"
         y="915.48492"
         id="text3791"
         sodipodi:linespacing="89.999998%"><tspan
           sodipodi:role="line"
           id="tspan3793"
           x="86.368042"
           y="915.48492"
           style="font-size:32px;font-family:Arial;-inkscape-font-specification:Arial">RH</tspan></text>
    </g>
    <g
       id="g4528"
       transform="translate(282.84271,-154.55334)">
      <rect
         ry="4.1301122"
         y="939.54913"
         x="80.75"
         height="48.5"
         width="228.5"
         id="rect3783"
         style="fill:#ff7f2a;fill-opacity:1;stroke:#000000;stroke-width:1.49999976;stroke-miterlimit:4;stroke-dasharray:none" />
      <text
         sodipodi:linespacing="89.999998%"
         id="text3795"
         y="975.06476"
         x="86.368042"
         style="font-size:48px;font-style:normal;font-variant:normal;font-weight:normal;font-stretch:normal;text-align:start;line-height:89.99999762%;letter-spacing:0.40000001px;word-spacing:0px;text-anchor:start;fill:#000000;fill-opacity:1;stroke:none;font-family:Allura;-inkscape-font-specification:Allura"
         xml:space="preserve"><tspan
           style="font-size:32px;font-family:Arial;-inkscape-font-specification:Arial"
           y="975.06476"
           x="86.368042"
           id="tspan3797"
           sodipodi:role="line">Fan</tspan></text>
    </g>
    <g
       id="g4609"
       transform="translate(0,1.9073486e-6)">
      <rect
         style="fill:#ff7f2a;fill-opacity:1;stroke:#000000;stroke-width:1.49999976;stroke-miterlimit:4;stroke-dasharray:none"
         id="rect3785"
         width="228.5"
         height="48.5"
         x="80.75"
         y="819.5094"
         ry="4.1301122" />
      <text
         xml:space="preserve"
         style="font-size:48px;font-style:normal;font-variant:normal;font-weight:normal;font-stretch:normal;text-align:start;line-height:89.99999762%;letter-spacing:0.40000001px;word-spacing:0px;text-anchor:start;fill:#000000;fill-opacity:1;stroke:none;font-family:Allura;-inkscape-font-specification:Allura"
         x="127.36875"
         y="855.02502"
         id="text4500"
         sodipodi:linespacing="89.999998%"><tspan
           sodipodi:role="line"
           id="tspan4502"
           x="127.36875"
           y="855.02502"
           style="font-size:32px;font-family:Arial;-inkscape-font-specification:Arial">Backlight</tspan></text>
      <g
         transform="translate(2.7615967,-173.28689)"
         id="g3807">
        <text
           sodipodi:linespacing="89.999998%"
           id="text3799"
           y="1029.4799"
           x="86.368042"
           style="font-size:48px;font-style:normal;font-variant:normal;font-weight:normal;font-stretch:normal;text-align:start;line-height:89.99999762%;letter-spacing:0.40000001px;word-spacing:0px;text-anchor:start;fill:#000000;fill-opacity:1;stroke:none;font-family:Allura;-inkscape-font-specification:Allura"
           xml:space="preserve"><tspan
             style="font-size:48px;font-family:Arial;-inkscape-font-specification:Arial"
             y="1029.4799"
             x="86.368042"
             id="tspan3801"
             sodipodi:role="line">-</tspan></text>
        <text
           xml:space="preserve"
           style="font-size:48px;font-style:normal;font-variant:normal;font-weight:normal;font-stretch:normal;text-align:start;line-height:89.99999762%;letter-spacing:0.40000001px;word-spacing:0px;text-anchor:start;fill:#000000;fill-opacity:1;stroke:none;font-family:Allura;-inkscape-font-specification:Allura"
           x="271.22595"
           y="1033.9564"
           id="text3803"
           sodipodi:linespacing="89.999998%"><tspan
             sodipodi:role="line"
             id="tspan3805"
             x="271.22595"
             y="1033.9564"
             style="font-size:48px;font-style:normal;font-variant:normal;font-weight:normal;font-stretch:normal;font-family:Arial;-inkscape-font-specification:Arial">+</tspan></text>
      </g>
    </g>
    <g
       id="g4698"
       transform="translate(0,0.50509834)">
      <rect
         ry="10.065597"
         y="874.05762"
         x="80.75"
         height="118.20052"
         width="228.5"
         id="rect4664"
         style="fill:#ffff00;fill-opacity:1;stroke:#000000;stroke-width:1.49999975999999990;stroke-miterlimit:4;stroke-dasharray:none" />
      <text
         sodipodi:linespacing="89.999998%"
         id="text4595"
         y="903.30054"
         x="194.63252"
         style="font-size:48px;font-style:normal;font-variant:normal;font-weight:normal;font-stretch:normal;text-align:start;line-height:89.99999762%;letter-spacing:0.40000001px;word-spacing:0px;text-anchor:start;fill:#000000;fill-opacity:1;stroke:none;font-family:Allura;-inkscape-font-specification:Allura"
         xml:space="preserve"><tspan
           id="tspan4696"
           style="font-size:32px;text-align:center;text-anchor:middle;font-family:Arial;-inkscape-font-specification:Arial"
           y="903.30054"
           x="194.83252"
           sodipodi:role="line">Chamber Light</tspan></text>
    </g>
    <path
       id="path4374"
       d="m 18.869181,848.67318 -2.685942,-2.23883 5.999847,-7.19429 29.205472,19.47028 2.286555,-4.15679 -3.047647,-1.67574 8.945051,-5.41272 0.215037,10.45358 -3.047648,-1.67574 -4.122722,7.48436 -29.761794,-19.83887 -3.986209,4.78476 z m 16.468719,-5.78481 10.733384,7.15672 10.419403,-18.228 3.020344,1.72695 -0.04773,-10.45358 -9.030455,5.26605 3.020454,1.72347 -8.556041,14.98246 -10.235163,-6.82232 -3.868479,4.64148 2.924785,1.94876 1.619493,-1.94199 z m -6.117574,7.34107 -2.924787,-1.94877 -10.1123,12.13271 2.685942,2.23883 10.351145,-12.42277 z m -18.683632,21.78763 v -6.98951 h 3.494756 v -3.49476 h -3.494756 v -6.98952 h 3.494756 v -3.49476 h -3.494756 v -6.98951 h 3.494756 v -3.49476 h -3.494756 v -6.98952 h 3.494756 v -3.49475 h -3.494756 v -6.98952 H 14.03145 V 819.5957 H 10.536694 7.041938 v 55.91613 h 55.916124 v -3.49476 H 10.536694 z"
       inkscape:connector-curvature="0"
       style="opacity:0.6" />
    <text
       xml:space="preserve"
       style="font-size:48px;font-style:normal;font-variant:normal;font-weight:normal;font-stretch:normal;text-align:start;line-height:89.99999762000000200%;letter-spacing:0.40000001000000002px;word-spacing:0px;text-anchor:start;fill:#000000;fill-opacity:1;stroke:none;font-family:Arial;-inkscape-font-specification:Arial;opacity:0.6"
       x="20.276562"
       y="885.57648"
       id="text4387"
       sodipodi:linespacing="89.999998%"><tspan
         sodipodi:role="line"
         id="tspan4389"
         x="20.276562"
         y="885.57648"
         style="font-size:8px">Current</tspan></text>
    <rect
       style="fill:#000000;fill-opacity:1;stroke:none"
       id="rect4391"
       width="70"
       height="10"
       x="0"
       y="792.00507" />
    <g
       id="g4442"
       transform="translate(-84.285719,148.57143)"
       style="opacity:1;fill:#000000;stroke:#000000;stroke-width:0.75000000000000000;stroke-miterlimit:4;stroke-dasharray:none">
      <path
         style="fill:#000000;stroke:#000000;stroke-width:0.75000000000000000;stroke-miterlimit:4;stroke-dasharray:none"
         id="path4394"
         d="m 119.84222,761.11891 c 0,-0.552 -0.447,-1 -1,-1 -5.773,0 -10.47,4.697 -10.47,10.47 0,0.552 0.447,1 1,1 0.553,0 1,-0.448 1,-1 0,-4.67 3.8,-8.47 8.47,-8.47 0.553,0 1,-0.447 1,-1 z"
         inkscape:connector-curvature="0" />
      <path
         style="fill:#000000;stroke:#000000;stroke-width:0.75000000000000000;stroke-miterlimit:4;stroke-dasharray:none"
         id="path4396"
         d="m 104.17022,770.58891 c 0,3.432 1.109,6.677 3.208,9.384 0.01,0.013 0.021,0.026 0.032,0.039 4.377,6.076 3.289,8.966 3.289,8.971 -0.234,0.5 -0.018,1.095 0.482,1.33 0.137,0.064 0.281,0.095 0.423,0.094 0.376,0 0.736,-0.213 0.906,-0.576 0.181,-0.384 1.611,-3.963 -3.53,-11.061 -0.023,-0.031 -0.046,-0.061 -0.072,-0.089 -1.791,-2.34 -2.737,-5.136 -2.737,-8.093 0,-7.348 5.979,-13.326 13.326,-13.326 7.347,0 13.326,5.978 13.326,13.326 0,2.965 -0.952,5.772 -2.771,8.138 -5.144,7.103 -3.656,10.723 -3.47,11.113 0.235,0.489 0.812,0.689 1.306,0.468 0.494,-0.221 0.718,-0.809 0.509,-1.309 -0.012,-0.029 -1.158,-2.977 3.258,-9.076 2.072,-2.696 3.168,-5.923 3.168,-9.333 0,-8.451 -6.875,-15.326 -15.326,-15.326 -8.451,0 -15.327,6.876 -15.327,15.326 z"
         inkscape:connector-curvature="0" />
      <path
         style="fill:#000000;stroke:#000000;stroke-width:0.75000000000000000;stroke-miterlimit:4;stroke-dasharray:none"
         id="path4398"
         d="m 128.42222,794.25691 v -0.85 c 0,-1.355 -1.103,-2.457 -2.457,-2.457 h -13.476 c -1.355,0 -2.457,1.102 -2.457,2.457 v 0.85 c 0,1.354 1.102,2.457 2.457,2.457 h 13.477 c 1.354,0 2.456,-1.102 2.456,-2.457 z m -16.39,0 v -0.85 c 0,-0.252 0.205,-0.457 0.457,-0.457 h 13.477 c 0.252,0 0.457,0.205 0.457,0.457 v 0.85 c 0,0.252 -0.205,0.457 -0.457,0.457 h -13.477 c -0.252,0 -0.457,-0.205 -0.457,-0.457 z"
         inkscape:connector-curvature="0" />
      <path
         style="fill:#000000;stroke:#000000;stroke-width:0.75000000000000000;stroke-miterlimit:4;stroke-dasharray:none"
         id="path4400"
         d="m 114.10822,798.23391 c -0.553,0 -1,0.448 -1,1 v 2.641 c 0,0.392 0.229,0.747 0.585,0.91 l 5.389,2.459 c 0.132,0.06 0.273,0.09 0.415,0.09 0.146,0 0.292,-0.032 0.427,-0.096 l 5.404,-2.55 c 0.35,-0.165 0.573,-0.517 0.573,-0.904 v -2.549 c 0,-0.552 -0.447,-1 -1,-1 -0.553,0 -1,0.448 -1,1 v 1.916 l -4.411,2.082 -4.382,-2 v -1.998 c 0,-0.554 -0.447,-1.001 -1,-1.001 z"
         inkscape:connector-curvature="0" />
      <path
         style="fill:#000000;stroke:#000000;stroke-width:0.75000000000000000;stroke-miterlimit:4;stroke-dasharray:none"
         id="path4402"
         d="m 142.79422,788.65891 c 0.328,-0.444 0.233,-1.07 -0.211,-1.398 l -6.784,-5.002 c -0.445,-0.328 -1.07,-0.234 -1.398,0.211 -0.328,0.444 -0.233,1.07 0.211,1.398 l 6.784,5.002 c 0.179,0.132 0.387,0.195 0.593,0.195 0.306,10e-4 0.609,-0.14 0.805,-0.406 z"
         inkscape:connector-curvature="0" />
      <path
         style="fill:#000000;stroke:#000000;stroke-width:0.75000000000000000;stroke-miterlimit:4;stroke-dasharray:none"
         id="path4404"
         d="m 103.04522,760.59591 c 0.179,0.132 0.387,0.195 0.593,0.195 0.307,0 0.609,-0.141 0.806,-0.407 0.328,-0.444 0.233,-1.07 -0.211,-1.398 l -6.937001,-5.114 c -0.444,-0.329 -1.07,-0.233 -1.398,0.211 -0.328,0.445 -0.234,1.071 0.211,1.399 l 6.936001,5.114 z"
         inkscape:connector-curvature="0" />
      <path
         style="fill:#000000;stroke:#000000;stroke-width:0.75000000000000000;stroke-miterlimit:4;stroke-dasharray:none"
         id="path4406"
         d="m 103.36022,781.91491 -7.250001,5.346 c -0.444,0.328 -0.539,0.954 -0.211,1.398 0.196,0.266 0.499,0.407 0.806,0.407 0.206,0 0.414,-0.063 0.593,-0.195 l 7.250001,-5.346 c 0.444,-0.328 0.539,-0.954 0.211,-1.398 -0.33,-0.445 -0.955,-0.539 -1.399,-0.212 z"
         inkscape:connector-curvature="0" />
      <path
         style="fill:#000000;stroke:#000000;stroke-width:0.75000000000000000;stroke-miterlimit:4;stroke-dasharray:none"
         id="path4408"
         d="m 134.90822,758.65591 c -0.444,0.328 -0.539,0.954 -0.211,1.398 0.196,0.266 0.499,0.407 0.806,0.407 0.206,0 0.414,-0.064 0.593,-0.195 l 6.489,-4.784 c 0.444,-0.328 0.539,-0.954 0.211,-1.398 -0.328,-0.444 -0.953,-0.54 -1.398,-0.211 l -6.49,4.783 z"
         inkscape:connector-curvature="0" />
      <path
         style="fill:#000000;stroke:#000000;stroke-width:0.75000000000000000;stroke-miterlimit:4;stroke-dasharray:none"
         id="path4410"
         d="m 146.72522,770.37191 h -7.649 c -0.553,0 -1,0.448 -1,1 0,0.552 0.447,1 1,1 h 7.649 c 0.553,0 1,-0.448 1,-1 0,-0.552 -0.447,-1 -1,-1 z"
         inkscape:connector-curvature="0" />
      <path
         style="fill:#000000;stroke:#000000;stroke-width:0.75000000000000000;stroke-miterlimit:4;stroke-dasharray:none"
         id="path4412"
         d="m 100.73922,771.37191 c 0,-0.552 -0.447,-1 -1.000001,-1 h -7.893 c -0.553,0 -1,0.448 -1,1 0,0.552 0.447,1 1,1 h 7.893 c 0.552001,0 1.000001,-0.448 1.000001,-1 z"
         inkscape:connector-curvature="0" />
    </g>
    <text
       sodipodi:linespacing="89.999998%"
       id="text4454"
       y="964.86218"
       x="25.254688"
       style="font-size:48px;font-style:normal;font-variant:normal;font-weight:normal;font-stretch:normal;text-align:start;line-height:89.99999762000000200%;letter-spacing:0.40000001000000002px;word-spacing:0px;text-anchor:start;opacity:1;fill:#000000;fill-opacity:1;stroke:none;font-family:Arial;-inkscape-font-specification:Arial"
       xml:space="preserve"><tspan
         style="font-size:8px"
         y="964.86218"
         x="25.254688"
         id="tspan4456"
         sodipodi:role="line">Light</tspan></text>
    <path
       id="path4459"
       d="m 10.176821,989.81023 6.810728,6.83484 6.64197,-1.20543 1.193385,-6.64198 -6.810731,-6.83483 c 1.530908,-1.53091 3.712753,-2.23006 5.328041,-2.14568 1.627342,0.0844 5.099006,1.00051 7.787134,3.8574 2.603748,2.7484 5.340094,7.87151 2.917162,13.56119 -0.289305,0.6871 -0.614773,1.59118 0.349577,2.55553 0.976406,0.96433 25.916934,24.44623 25.916934,24.44623 2.338552,2.0131 2.16979,5.7379 0.01205,7.9077 -2.193899,2.1577 -5.894596,2.2903 -7.907678,-0.036 0,0 -23.289078,-24.8079 -24.434245,-25.929 -1.024622,-1.0004 -1.940756,-0.6629 -2.55553,-0.3495 -4.291362,2.2179 -10.402938,0.2893 -13.573241,-2.881 -3.1703044,-3.1703 -3.7489144,-6.23212 -3.8453504,-7.79919 -0.096434,-1.55502 0.446013,-3.61632 2.1697904,-5.34009 z m 44.673562,39.57447 c 0.759427,0.7474 1.988974,0.7474 2.736347,0 0.747371,-0.7594 0.747371,-1.989 0,-2.7363 -0.759427,-0.7474 -1.988974,-0.7474 -2.736347,0 -0.747371,0.7594 -0.747371,1.989 0,2.7363 z"
       inkscape:connector-curvature="0"
       style="opacity:0.6;fill:#000000;stroke:none" />
    <text
       xml:space="preserve"
       style="font-size:48px;font-style:normal;font-variant:normal;font-weight:normal;font-stretch:normal;text-align:start;line-height:89.99999762%;letter-spacing:0.40000001px;word-spacing:0px;text-anchor:start;opacity:0.6;fill:#000000;fill-opacity:1;stroke:none;font-family:Arial;-inkscape-font-specification:Arial"
       x="19.113672"
       y="1047.1897"
       id="text4468"
       sodipodi:linespacing="89.999998%"><tspan
         sodipodi:role="line"
         x="19.113672"
         y="1047.1897"
         style="font-size:8px"
         id="tspan4472">Settings</tspan></text>
    <g
       id="g4650"
       transform="translate(-115.66248,-87.883271)">
      <rect
         ry="4.1301122"
         y="1087.1998"
         x="196.41248"
         height="48.5"
         width="228.5"
         id="rect4621"
         style="fill:#2a7fff;fill-opacity:1;stroke:#000000;stroke-width:1.49999975999999990;stroke-miterlimit:4;stroke-dasharray:none" />
      <g
         id="g4627"
         transform="translate(118.42407,94.40353)" />
      <text
         sodipodi:linespacing="89.999998%"
         id="text4552"
         y="1122.903"
         x="306.69629"
         style="font-size:48px;font-style:normal;font-variant:normal;font-weight:normal;font-stretch:normal;text-align:center;line-height:89.99999762%;letter-spacing:0.40000001px;word-spacing:0px;text-anchor:middle;fill:#000000;fill-opacity:1;stroke:none;font-family:Arial;-inkscape-font-specification:Arial"
         xml:space="preserve"><tspan
           style="font-size:32px;text-align:center;text-anchor:middle"
           y="1122.903"
           x="306.8963"
           id="tspan4554"
           sodipodi:role="line">Sleep</tspan></text>
    </g>
    <text
       xml:space="preserve"
       style="font-size:83.45722198px;font-style:normal;font-variant:normal;font-weight:normal;font-stretch:normal;text-align:start;line-height:89.99999762%;letter-spacing:0.69547683px;word-spacing:0px;text-anchor:start;fill:#000000;fill-opacity:1;stroke:none;font-family:Arial;-inkscape-font-specification:Arial"
       x="196.53809"
       y="979.19836"
       id="text4704"
       sodipodi:linespacing="89.999998%"><tspan
         sodipodi:role="line"
         id="tspan4706"
         x="196.88583"
         y="979.19836"
         style="font-size:90px;text-align:center;text-anchor:middle">ON</tspan></text>
  </g>
</svg>
